<?xml version="1.0" encoding="UTF-8" standalone="no"?> <svg width="64" height="64" viewBox="0 0 64 64" fill="none" xmlns="http://www.w3.org/2000/svg">
<path d="M49 44.0704H35C34.2246 44.073 33.482 44.3829 32.9346 44.9321C32.3873 45.4813 32.08 46.225 32.08 47.0004V49.6304H30.42C30.2656 49.1642 30.0044 48.7405 29.6571 48.3933C29.3098 48.046 28.8862 47.7848 28.42 47.6304V39.9004C28.42 39.6352 28.3146 39.3808 28.1271 39.1933C27.9396 39.0057 27.6852 38.9004 27.42 38.9004C27.1548 38.9004 26.9004 39.0057 26.7129 39.1933C26.5254 39.3808 26.42 39.6352 26.42 39.9004V47.6704C25.9549 47.8269 25.5324 48.0888 25.1854 48.4358C24.8384 48.7828 24.5765 49.2053 24.42 49.6704H22.84V47.0004C22.84 46.225 22.5327 45.4813 21.9854 44.9321C21.438 44.3829 20.6954 44.073 19.92 44.0704H5.92C5.14465 44.073 4.40196 44.3829 3.85464 44.9321C3.30732 45.4813 3 46.225 3 47.0004V54.2704C3 55.0448 3.30764 55.7875 3.85525 56.3351C4.40285 56.8827 5.14557 57.1904 5.92 57.1904H11.92V59.0004H9.77C9.50478 59.0004 9.25043 59.1057 9.06289 59.2933C8.87536 59.4808 8.77 59.7352 8.77 60.0004C8.77 60.2656 8.87536 60.52 9.06289 60.7075C9.25043 60.895 9.50478 61.0004 9.77 61.0004H16.07C16.3352 61.0004 16.5896 60.895 16.7771 60.7075C16.9646 60.52 17.07 60.2656 17.07 60.0004C17.07 59.7352 16.9646 59.4808 16.7771 59.2933C16.5896 59.1057 16.3352 59.0004 16.07 59.0004H13.92V57.1904H19.92C20.6944 57.1904 21.4371 56.8827 21.9848 56.3351C22.5324 55.7875 22.84 55.0448 22.84 54.2704V51.6304H24.5C24.707 52.2517 25.1043 52.7921 25.6356 53.1751C26.1668 53.558 26.8051 53.7641 27.46 53.7641C28.1149 53.7641 28.7532 53.558 29.2844 53.1751C29.8157 52.7921 30.213 52.2517 30.42 51.6304H32.08V54.2704C32.08 55.0448 32.3876 55.7875 32.9352 56.3351C33.4829 56.8827 34.2256 57.1904 35 57.1904H41V59.0004H38.85C38.5848 59.0004 38.3304 59.1057 38.1429 59.2933C37.9554 59.4808 37.85 59.7352 37.85 60.0004C37.85 60.2656 37.9554 60.52 38.1429 60.7075C38.3304 60.895 38.5848 61.0004 38.85 61.0004H45.15C45.4152 61.0004 45.6696 60.895 45.8571 60.7075C46.0446 60.52 46.15 60.2656 46.15 60.0004C46.15 59.7352 46.0446 59.4808 45.8571 59.2933C45.6696 59.1057 45.4152 59.0004 45.15 59.0004H43V57.1904H49C49.7744 57.1904 50.5171 56.8827 51.0648 56.3351C51.6124 55.7875 51.92 55.0448 51.92 54.2704V47.0004C51.92 46.225 51.6127 45.4813 51.0654 44.9321C50.518 44.3829 49.7754 44.073 49 44.0704V44.0704ZM20.84 54.2704C20.84 54.5144 20.7431 54.7484 20.5705 54.9209C20.398 55.0935 20.164 55.1904 19.92 55.1904H5.92C5.676 55.1904 5.442 55.0935 5.26946 54.9209C5.09693 54.7484 5 54.5144 5 54.2704V47.0004C4.99999 46.7555 5.09659 46.5204 5.26885 46.3463C5.4411 46.1722 5.67509 46.073 5.92 46.0704H19.92C20.1649 46.073 20.3989 46.1722 20.5712 46.3463C20.7434 46.5204 20.84 46.7555 20.84 47.0004V54.2704ZM27.46 51.7704C27.2345 51.7704 27.0141 51.7035 26.8267 51.5783C26.6392 51.453 26.4931 51.275 26.4068 51.0666C26.3205 50.8583 26.2979 50.6291 26.3419 50.408C26.3859 50.1868 26.4945 49.9837 26.6539 49.8243C26.8133 49.6649 27.0165 49.5563 27.2376 49.5123C27.4587 49.4683 27.688 49.4909 27.8963 49.5772C28.1046 49.6635 28.2826 49.8096 28.4079 49.997C28.5331 50.1845 28.6 50.4049 28.6 50.6304C28.6013 50.7805 28.5728 50.9293 28.5159 51.0682C28.4591 51.2071 28.3752 51.3333 28.2691 51.4395C28.1629 51.5456 28.0367 51.6295 27.8978 51.6863C27.7589 51.7431 27.6101 51.7717 27.46 51.7704V51.7704ZM49.92 54.2704C49.92 54.5144 49.8231 54.7484 49.6505 54.9209C49.478 55.0935 49.244 55.1904 49 55.1904H35C34.756 55.1904 34.522 55.0935 34.3495 54.9209C34.1769 54.7484 34.08 54.5144 34.08 54.2704V47.0004C34.08 46.7555 34.1766 46.5204 34.3488 46.3463C34.5211 46.1722 34.7551 46.073 35 46.0704H49C49.2449 46.073 49.4789 46.1722 49.6512 46.3463C49.8234 46.5204 49.92 46.7555 49.92 47.0004V54.2704Z" fill="black"/>
<path d="M37.1499 21.3504C36.736 19.0822 35.5395 17.031 33.7689 15.5542C31.9982 14.0774 29.7656 13.2686 27.4599 13.2686C25.1542 13.2686 22.9216 14.0774 21.1509 15.5542C19.3803 17.031 18.1838 19.0822 17.7699 21.3504C16.8407 21.5184 15.9412 21.8216 15.0999 22.2504C13.1252 23.2539 11.546 24.8931 10.6167 26.9038C9.68746 28.9144 9.46226 31.1794 9.97744 33.3337C10.4926 35.4879 11.7182 37.406 13.4565 38.7787C15.1949 40.1514 17.3449 40.8988 19.5599 40.9004H35.3599C37.8136 40.8922 40.1762 39.9695 41.9858 38.3124C43.7955 36.6553 44.9223 34.383 45.1461 31.9395C45.3698 29.4959 44.6744 27.0568 43.1957 25.0986C41.717 23.1405 39.5613 21.804 37.1499 21.3504ZM35.3599 38.9004H19.5599C17.7818 38.9151 16.0513 38.3265 14.6509 37.2307C13.2506 36.1349 12.2632 34.5967 11.8499 32.8672C11.4367 31.1378 11.6221 29.3193 12.3759 27.7088C13.1296 26.0983 14.4072 24.791 15.9999 24.0004C16.8545 23.5614 17.7839 23.2866 18.7399 23.1904C20.2407 23.0403 21.7532 23.3213 23.0999 24.0004C23.2167 24.061 23.3444 24.098 23.4755 24.1093C23.6067 24.1205 23.7388 24.1057 23.8642 24.0657C23.9896 24.0258 24.1059 23.9614 24.2064 23.8764C24.3069 23.7914 24.3897 23.6874 24.4499 23.5704C24.5615 23.3351 24.577 23.0655 24.493 22.819C24.4089 22.5725 24.232 22.3685 23.9999 22.2504C22.7001 21.5989 21.2732 21.2405 19.8199 21.2004C20.2558 19.5136 21.2398 18.0194 22.6173 16.9526C23.9948 15.8858 25.6876 15.307 27.4299 15.307C29.1721 15.307 30.865 15.8858 32.2425 16.9526C33.62 18.0194 34.604 19.5136 35.0399 21.2004C33.586 21.2455 32.1595 21.6073 30.8599 22.2604C30.6686 22.4043 30.5352 22.6121 30.4841 22.8459C30.4329 23.0798 30.4674 23.3243 30.5812 23.5349C30.6949 23.7455 30.8805 23.9083 31.1042 23.9937C31.3278 24.0792 31.5747 24.0815 31.7999 24.0004C33.1531 23.3085 34.6789 23.0269 36.1899 23.1904L36.5499 23.2404C38.5609 23.4815 40.4013 24.4896 41.6872 26.0546C42.9731 27.6195 43.6052 29.6204 43.4517 31.6401C43.2982 33.6597 42.371 35.5422 40.8634 36.8948C39.3559 38.2475 37.3843 38.966 35.3599 38.9004V38.9004Z" fill="#29ABE2"/>
<path d="M45.1499 3C44.8847 3 44.6303 3.10536 44.4428 3.29289C44.2553 3.48043 44.1499 3.73478 44.1499 4C44.1499 4.26522 44.2553 4.51957 44.4428 4.70711C44.6303 4.89464 44.8847 5 45.1499 5C48.8296 5.0185 52.3522 6.49324 54.9476 9.10174C57.543 11.7102 58.9999 15.2403 58.9999 18.92C58.9999 19.1852 59.1053 19.4396 59.2928 19.6271C59.4803 19.8146 59.7347 19.92 59.9999 19.92C60.2651 19.92 60.5195 19.8146 60.707 19.6271C60.8945 19.4396 60.9999 19.1852 60.9999 18.92C61.0026 14.709 59.3358 10.6688 56.3647 7.68463C53.3937 4.70049 49.3608 3.01588 45.1499 3V3Z" fill="#29ABE2"/>
<path d="M45.1499 7.16992C44.8847 7.16992 44.6303 7.27528 44.4428 7.46281C44.2553 7.65035 44.1499 7.90471 44.1499 8.16992C44.1499 8.43514 44.2553 8.68949 44.4428 8.87703C44.6303 9.06456 44.8847 9.16992 45.1499 9.16992C47.7254 9.18577 50.1899 10.22 52.0054 12.0468C53.821 13.8735 54.8399 16.3444 54.8399 18.9199C54.8399 19.1851 54.9453 19.4395 55.1328 19.627C55.3203 19.8146 55.5747 19.9199 55.8399 19.9199C56.1051 19.9199 56.3595 19.8146 56.547 19.627C56.7345 19.4395 56.8399 19.1851 56.8399 18.9199C56.8426 15.8132 55.6137 12.8321 53.4226 10.6297C51.2314 8.42725 48.2566 7.18315 45.1499 7.16992V7.16992Z" fill="#29ABE2"/>
<path d="M45.1499 11.3496C44.8847 11.3496 44.6303 11.455 44.4428 11.6425C44.2553 11.83 44.1499 12.0844 44.1499 12.3496C44.1499 12.6148 44.2553 12.8692 44.4428 13.0567C44.6303 13.2443 44.8847 13.3496 45.1499 13.3496C46.6193 13.3602 48.0248 13.952 49.0591 14.9957C50.0935 16.0394 50.6726 17.4502 50.6699 18.9196C50.6699 19.1848 50.7753 19.4392 50.9628 19.6267C51.1503 19.8143 51.4047 19.9196 51.6699 19.9196C51.9351 19.9196 52.1895 19.8143 52.377 19.6267C52.5645 19.4392 52.6699 19.1848 52.6699 18.9196C52.6752 16.9189 51.8862 14.998 50.4762 13.5786C49.0663 12.1592 47.1506 11.3576 45.1499 11.3496V11.3496Z" fill="#29ABE2"/>
<path d="M45.12 15.5195C44.4535 15.5195 43.8019 15.7172 43.2477 16.0875C42.6935 16.4578 42.2616 16.9841 42.0065 17.5999C41.7515 18.2157 41.6847 18.8933 41.8148 19.547C41.9448 20.2007 42.2657 20.8012 42.737 21.2725C43.2084 21.7438 43.8088 22.0647 44.4625 22.1948C45.1163 22.3248 45.7939 22.2581 46.4096 22.003C47.0254 21.7479 47.5518 21.316 47.9221 20.7618C48.2924 20.2076 48.49 19.5561 48.49 18.8895C48.49 17.9958 48.1349 17.1386 47.5029 16.5066C46.871 15.8746 46.0138 15.5195 45.12 15.5195V15.5195ZM45.12 20.2595C44.849 20.2595 44.5842 20.1792 44.3589 20.0286C44.1336 19.8781 43.958 19.6641 43.8543 19.4138C43.7506 19.1635 43.7235 18.888 43.7763 18.6223C43.8292 18.3565 43.9597 18.1124 44.1513 17.9208C44.3429 17.7292 44.587 17.5987 44.8527 17.5459C45.1185 17.493 45.3939 17.5201 45.6443 17.6238C45.8946 17.7275 46.1086 17.9031 46.2591 18.1284C46.4097 18.3537 46.49 18.6186 46.49 18.8895C46.49 19.0694 46.4546 19.2476 46.3857 19.4138C46.3169 19.58 46.216 19.7311 46.0887 19.8583C45.9615 19.9855 45.8105 20.0864 45.6443 20.1552C45.4781 20.2241 45.2999 20.2595 45.12 20.2595V20.2595Z" fill="#29ABE2"/>
</svg>
